<?xml version="1.0" encoding="UTF-8"?>
<svg width="182px" height="52px" viewBox="0 0 182 52" version="1.1" xmlns="http://www.w3.org/2000/svg" xmlns:xlink="http://www.w3.org/1999/xlink">
    <title>CI-F - KO_E</title>
    <g id="Symbols" stroke="none" stroke-width="1" fill="#BB55FF" fill-rule="evenodd">
        <g id="Navigation/Desktop/Transparent" transform="translate(-118.000000, -24.000000)" fill="#BB55FF" fill-rule="nonzero">
            <g id="CI-F---KO_E" transform="translate(118.000000, 24.000000)">
                <polygon id="Path" points="63.6235294 20.8807363 63.6235294 24.7976951 68.4710364 24.7976951 68.4710364 27.4053942 63.6235294 27.4053942 63.6235294 33.9408723 60.5613766 33.9408723 60.5613766 18.3054982 69.4340456 18.3054982 69.4340456 20.8807363"></polygon>
                <rect id="Rectangle" x="72.712605" y="18.3054982" width="3.08379352" height="15.6353741"></rect>
                <path d="M93.4227131,34.1897399 L86.6816487,26.8427371 C85.5996158,25.6416807 84.3769188,24.2133974 83.4355502,23.0664426 L83.3814486,23.0664426 C83.4355502,24.3432413 83.4355502,25.587579 83.4355502,26.6696118 L83.4355502,33.930052 L80.4166787,33.930052 L80.4166787,18.3163185 L82.7755102,18.3163185 L88.802433,24.9058984 C89.6355982,25.8148059 90.912397,27.2322689 91.7455622,28.2818407 L91.7455622,28.2818407 C91.7455622,27.1998079 91.7455622,26.0312125 91.7455622,24.9708203 L91.7455622,18.3379592 L94.7536134,18.3379592 L94.7536134,34.2113806 L93.4227131,34.1897399 Z" id="Path"></path>
                <path d="M105.314254,24.3865226 C105.141128,23.9212485 104.913902,23.3044898 104.751597,22.6985514 L104.697495,22.6985514 C104.54601,23.2828491 104.307963,23.9212485 104.134838,24.3865226 L102.836399,27.7408243 L106.580232,27.7408243 L105.314254,24.3865226 Z M108.993165,33.9516927 L107.48914,30.1753982 L101.981593,30.1753982 L100.488387,33.9516927 L97.5127971,33.9516927 L103.940072,18.1431933 L105.682145,18.1431933 L112.076959,33.9516927 L108.993165,33.9516927 Z" id="Shape"></path>
                <path d="M127.885458,34.1897399 L121.144394,26.8427371 C120.062361,25.6416807 118.839664,24.2133974 117.898295,23.0664426 L117.844194,23.0664426 C117.898295,24.3432413 117.898295,25.587579 117.898295,26.6696118 L117.898295,33.930052 L114.879424,33.930052 L114.879424,18.3163185 L117.259896,18.3163185 L123.286819,24.9058984 C124.119984,25.8148059 125.450884,27.2322689 126.229948,28.2818407 L126.229948,28.2818407 C126.229948,27.1998079 126.229948,26.0312125 126.229948,24.9708203 L126.229948,18.3379592 L129.237999,18.3379592 L129.237999,34.2113806 L127.885458,34.1897399 Z" id="Path"></path>
                <path d="M144.743529,21.7680032 C143.652196,21.158215 142.422961,20.837869 141.172821,20.837455 C139.711253,20.7528678 138.280582,21.2813946 137.225035,22.2958693 C136.169489,23.3103441 135.584628,24.7189235 135.611172,26.1826971 C135.611172,29.5802801 138.251333,31.5171188 141.270204,31.5171188 C142.524922,31.5682291 143.772096,31.3001796 144.895014,30.7380552 L144.624506,33.4539576 C143.427302,33.9670677 142.126695,34.1930991 140.826571,34.1139976 C136.85551,34.1139976 132.494918,31.3980952 132.494918,26.1285954 C132.494918,20.8590956 136.909612,18.1107323 140.826571,18.1107323 C142.382473,18.0549654 143.927199,18.3936884 145.317007,19.0953822 L144.743529,21.7680032 Z" id="Path"></path>
                <rect id="Rectangle" x="148.844434" y="18.3054982" width="3.08379352" height="15.6353741"></rect>
                <path d="M162.759376,24.3865226 C162.586251,23.9212485 162.369844,23.3044898 162.196719,22.6985514 L162.196719,22.6985514 C162.045234,23.2828491 161.796367,23.9212485 161.634062,24.3865226 L160.335622,27.7408243 L164.101096,27.7408243 L162.759376,24.3865226 Z M166.438287,33.9516927 L164.945082,30.1753982 L159.426715,30.1753982 L157.933509,33.9516927 L154.968739,33.9516927 L161.385194,18.1431933 L163.127267,18.1431933 L169.522081,33.9516927 L166.438287,33.9516927 Z" id="Shape"></path>
                <polygon id="Path" points="172.292085 18.3054982 172.292085 33.9408723 181.781513 33.9408723 181.781513 31.3656343 175.386699 31.3656343 175.386699 18.3054982"></polygon>
                <path d="M2.70508203,2.73504602 L49.232493,2.73504602 L49.232493,49.262457 L2.70508203,49.262457 L2.70508203,2.73504602 Z M0,51.9891797 L51.937575,51.9891797 L51.937575,0.0516046419 L0,0.0516046419 L0,51.9891797 Z" id="Shape"></path>
                <rect id="Rectangle" x="36.6484514" y="12.6681072" width="4.90160864" height="26.8776951"></rect>
                <path d="M27.6892197,33.1618087 L27.6892197,33.1618087 C26.2948756,34.1363232 24.6292332,34.6473725 22.9282753,34.622553 C19.1029546,34.7068565 15.6760841,32.2697195 14.5002,28.6286369 C13.3243159,24.9875543 14.6784086,21.0064099 17.8304674,18.8373753 C20.9825263,16.6683408 25.1846934,16.8260416 28.1653141,19.2252261 L32.4393437,15.6545178 C28.2118989,11.6905153 22.0005161,10.691524 16.7433309,13.1300912 C11.4861457,15.5686584 8.23705697,20.9559287 8.53296278,26.7435919 C8.8288686,32.5312552 12.6104493,37.5590685 18.088925,39.4487536 C23.5674007,41.3384387 29.6445109,39.7111738 33.4456343,35.3366947 C33.3266106,35.1743898 30.5133253,30.9544618 27.6892197,33.1726291" id="Path"></path>
            </g>
        </g>
    </g>
</svg>